<svg xmlns="http://www.w3.org/2000/svg" width="151.994" height="76.003" viewBox="0 0 151.994 76.003">
  <g id="Logo" transform="translate(0.006 0.005)">
    <g id="Group_48015" data-name="Group 48015" transform="translate(17.251 23.407)">
      <path id="Path_26368" data-name="Path 26368" d="M254.854,1500.511c2.281-2.965,4.847-5.7,7.185-8.843a72.915,72.915,0,0,0,5.418-8.667,1.046,1.046,0,0,1,1.027-.628c.571,0,1.14.229,1.14.855a5.445,5.445,0,0,1-.513,1.54c-1.313,3.649-2.737,7.243-4.163,10.835-.967,2.453-1.934,4.9-2.966,7.3a13.294,13.294,0,0,0-.684,1.71c0,.512,1.369.8,1.369,1.539,0,.456-.514.69-.912.69-.514,0-.855-.455-1.027-.455-.115,0-.171.056-.228.172-.912,2.052-1.539,4.333-2.281,6.444a1.12,1.12,0,0,1-1.083.691c-.8,0-1.083-.285-1.083-1.084a37.441,37.441,0,0,1,2.281-6.728,3.467,3.467,0,0,0,.286-.684.344.344,0,0,0-.171-.343,22.381,22.381,0,0,0-3.364-2.168c-.4.058-8.9,10.379-13.116,10.379-2.908,0-4.163-3.423-4.163-5.817,0-4.163,2.967-8.843,7.529-8.843a30.258,30.258,0,0,1,8.725,2.224C254.455,1500.8,254.569,1500.8,254.854,1500.511Zm-3.878,4.163a32.946,32.946,0,0,0,2.452-2.625c0-.115-.057-.115-.115-.172a27.942,27.942,0,0,0-7.925-2,3.908,3.908,0,0,0-2.4.8,7.935,7.935,0,0,0-3.137,6.673c0,1.2.456,4.334,2.11,4.334,2.166,0,7.471-5.469,9.01-7Zm8.152-1.255c.113,0,.171-.057.228-.171.285-.741,5.418-12.262,5.418-12.262a6.257,6.257,0,0,0-.627.571c-1.6,2.509-5.646,6.672-7.876,9.751,0,.058-.115.172,0,.286.181.174,2.632,1.722,2.862,1.832Z" transform="translate(-237.804 -1481.917)" fill="#fee05b"/>
      <path id="Path_26369" data-name="Path 26369" d="M320.79,1568.572c.343-.8.741-1.6,1.539-1.6.456,0,.967.228.967.741,0,.855-1.311,2.852-1.311,3.251a.2.2,0,0,0,.058.114c.17,0,2-2.281,3.935-2.281,1.255,0,1.658.967,1.658,2.053a6.562,6.562,0,0,1-.456,2.338c-.171.456.113.514.228.456a16.068,16.068,0,0,0,6.444-2.85c.855-.691,1.769.285.967,1.027a21.289,21.289,0,0,1-8.211,3.648.87.87,0,0,0-.627.4,3.507,3.507,0,0,1-2.965,1.935,6.37,6.37,0,0,1-3.08-1.255c-.285,0-.456.456-.569.691-2,4.847-3.993,9.751-6.159,14.542a45.459,45.459,0,0,1-3.308,6.672,2.627,2.627,0,0,1-2,1.368c-1.311,0-1.769-.913-1.769-2,0-2.793,4.283-10.208,5.646-12.489,1.658-2.737,3.364-5.359,5.19-7.983C318.509,1574.609,319.594,1571.128,320.79,1568.572Zm-12.261,28.058c.456-.967,4.9-10.094,5.93-12.712-1.369,2-5.7,9.353-6.331,12.712-.055.335.116.626.4-.01Zm13.23-22.583c-.113.115-.17.4.171.4a15.678,15.678,0,0,0,2.737-.229c.285,0,.341-.343.456-.57a8.349,8.349,0,0,0,.627-2.794.368.368,0,0,0-.343-.342c-.511-.007-2.741,2.452-3.648,3.53Zm2.111,1.825c-.627.057-1.2.057-1.825.057a1.376,1.376,0,0,0,.967.4,1.282,1.282,0,0,0,.858-.462Z" transform="translate(-290.567 -1547.232)" fill="#fee05b"/>
      <path id="Path_26370" data-name="Path 26370" d="M381.613,1568.572c.343-.8.741-1.6,1.539-1.6.456,0,.967.228.967.741,0,.855-1.311,2.852-1.311,3.251a.2.2,0,0,0,.058.114c.17,0,2-2.281,3.935-2.281,1.255,0,1.658.967,1.658,2.053a6.569,6.569,0,0,1-.456,2.338c-.171.456.113.514.228.456a16.068,16.068,0,0,0,6.444-2.85c.855-.691,1.769.285.967,1.027a21.29,21.29,0,0,1-8.211,3.648.872.872,0,0,0-.627.4,3.506,3.506,0,0,1-2.965,1.935,6.371,6.371,0,0,1-3.08-1.255c-.284,0-.456.456-.569.691-2,4.847-3.992,9.751-6.16,14.542a45.465,45.465,0,0,1-3.308,6.672,2.626,2.626,0,0,1-2,1.368c-1.311,0-1.769-.913-1.769-2,0-2.793,4.283-10.208,5.646-12.489,1.658-2.737,3.364-5.359,5.19-7.983C379.332,1574.609,380.418,1571.128,381.613,1568.572Zm-12.261,28.058c.456-.967,4.9-10.094,5.93-12.712-1.369,2-5.7,9.353-6.329,12.712-.057.335.115.626.4-.01Zm13.23-22.583c-.113.115-.17.4.171.4a15.68,15.68,0,0,0,2.737-.229c.285,0,.341-.343.456-.57a8.348,8.348,0,0,0,.627-2.794.367.367,0,0,0-.343-.342c-.511-.007-2.736,2.452-3.648,3.53Zm2.111,1.825c-.627.057-1.2.057-1.825.057a1.372,1.372,0,0,0,.967.4,1.282,1.282,0,0,0,.858-.462Z" transform="translate(-338.158 -1547.232)" fill="#fee05b"/>
      <path id="Path_26371" data-name="Path 26371" d="M500.612,1574.467c.967-.691,1.6.228.8.912-2.395,2.053-6.672,4.619-9.98,4.619a3,3,0,0,1-3.193-2.225c-.057-.114-.057-.285-.228-.285s-2.223,2-3.935,2a1.438,1.438,0,0,1-1.483-1.6c0-2.168,3.022-6.16,5.36-6.16a1.657,1.657,0,0,1,1.6,1.084c.343.684,1.658.284,1.658,1.2a.516.516,0,0,1-.172.4,13.87,13.87,0,0,0-.855,2.8c0,.8.341,1.311,1.2,1.311C494.224,1578.516,498.673,1575.834,500.612,1574.467Zm-12.546.967a3.6,3.6,0,0,0,.341-1.142c0-.228-.115-1.2-.456-1.2-.691,0-3.364,3.364-3.364,4.448,0,.115,0,.228.171.228a5.831,5.831,0,0,0,3.308-2.337Z" transform="translate(-427.895 -1550.906)" fill="#fee05b"/>
      <path id="Path_26372" data-name="Path 26372" d="M571.508,1566.691c.8-.69,2.11-.17.855.912-2.625,2.281-8.554,5.132-11.519,5.132-1.083,0-2.168-.514-2.168-1.71,0-1.368,1.426-3.308,1.426-3.592a.182.182,0,0,0-.171-.172c-.967,0-2.053.57-3.08,0-.113-.058-.341-.228-.512-.17a21.094,21.094,0,0,0-2.681,1.6c-.512.284-1.6-.456-.684-1.14a18.683,18.683,0,0,0,2.566-1.935c-.456-1.311,2.166-4.391,2.794-4.391.341,0,1.141.4,1.141.8a3,3,0,0,1-.912,2.053,6.267,6.267,0,0,0-.967,1.426c0,.855,3.25.172,3.879.172a1.072,1.072,0,0,1,1.026,1.2c-.057.627-1.825,2.737-1.825,4.163,0,.171.058.171.228.171C563.352,1571.2,569.4,1568.4,571.508,1566.691Z" transform="translate(-482.289 -1542.785)" fill="#fee05b"/>
      <path id="Path_26373" data-name="Path 26373" d="M646.294,1572.867c.571-.456,1.141.4.571.967a19.619,19.619,0,0,1-12.09,4.619c-1.769,0-3.764-.741-3.764-2.794a6.389,6.389,0,0,1,1.539-3.648,6,6,0,0,1,4.448-2.282c.967,0,2.281.4,2.281,1.54,0,1.882-2.965,3.365-4.56,3.365-.4,0-.8-.171-1.2-.171-.57,0-.627.684-.627,1.139,0,1.2.912,1.37,1.882,1.37A20.853,20.853,0,0,0,646.294,1572.867Zm-12.032-.285c-.115.115-.343.343-.343.514,0,.855,1.541.285,2.111.057.569-.286,1.825-1.083,1.825-1.825,0-.4-.571-.456-.8-.456a4.559,4.559,0,0,0-2.795,1.705Z" transform="translate(-543.413 -1549.358)" fill="#fee05b"/>
      <path id="Path_26374" data-name="Path 26374" d="M714.148,1503.706a.591.591,0,0,1,.569,1.027c-4.283,3.592-9.067,5.474-12.945,5.474-6.9,0-4.449-9.067-2.737-13.173,1.482-3.592,7.128-16.651,12.2-16.651a1.477,1.477,0,0,1,1.658,1.658c0,3.308-3.992,9.637-5.589,11.918-2.509,3.536-4.619,7.015-7.876,9.865-.343.912-.343,4.849,2.737,4.849C707.02,1508.666,711.524,1505.641,714.148,1503.706Zm-14.314-2.68c-.057.171.115.113.228-.057,1.769-2.053,4.334-5.76,6.218-8.44,1.658-2.281,6.273-10.607,4.789-10.607-3.136-.006-10.607,15.911-11.233,19.1Z" transform="translate(-594.501 -1480.371)" fill="#fee05b"/>
    </g>
    <path id="Path_26375" data-name="Path 26375" d="M331.3,1419.295h-5.25l-.991-5.287h-6.367l-.967,5.287h-5.264l6.784-36.367v-.066h5.264v.066Zm-7.247-10.639-2.159-11.674-2.18,11.674Z" transform="translate(-278.706 -1382.866)" fill="#fee05b"/>
    <path id="Path_26376" data-name="Path 26376" d="M437.017,1419.484a7.911,7.911,0,0,1-5.463-2.225,8.717,8.717,0,0,1-2.6-6.234v-19.45a8.462,8.462,0,0,1,1.079-4.229,8.2,8.2,0,0,1,2.9-3.029,7.756,7.756,0,0,1,8.152,0,8.2,8.2,0,0,1,2.9,3.029,8.479,8.479,0,0,1,1.078,4.229v1.7h-5.131V1391.6a2.98,2.98,0,0,0-.839-2.147,2.826,2.826,0,0,0-4.163,0,2.98,2.98,0,0,0-.837,2.147v19.473a2.99,2.99,0,0,0,2.929,3.04,2.9,2.9,0,0,0,2.073-.915,2.95,2.95,0,0,0,.839-2.125v-1.807h5.154v1.807a8.483,8.483,0,0,1-4,7.269,7.714,7.714,0,0,1-4.074,1.145Z" transform="translate(-369.03 -1383.087)" fill="#fee05b"/>
    <path id="Path_26377" data-name="Path 26377" d="M546.478,1419.4a7.938,7.938,0,0,1-5.463-2.211,8.464,8.464,0,0,1-2.577-5.408h-.044v-28.7h5.154v27.91a2.95,2.95,0,0,0,.837,2.125,2.828,2.828,0,0,0,4.165,0,2.954,2.954,0,0,0,.837-2.125v-27.932h5.132v27.888h.022a8.483,8.483,0,0,1-1.09,4.273,8.392,8.392,0,0,1-2.9,3.04,7.715,7.715,0,0,1-4.071,1.141Z" transform="translate(-453.895 -1383.012)" fill="#fee05b"/>
    <path id="Path_26378" data-name="Path 26378" d="M663.569,1419.459h-5.155l-5.331-18.5v18.5H647.93v-36.3h5.176l5.309,18.438v-18.437h5.155Z" transform="translate(-538.827 -1383.089)" fill="#fee05b"/>
    <path id="Path_26379" data-name="Path 26379" d="M774.073,1419.295h-5.244l-.991-5.287h-6.367l-.967,5.287H755.24l6.783-36.367v-.066h5.264v.066Zm-7.247-10.639-2.158-11.674-2.18,11.674Z" transform="translate(-622.084 -1382.866)" fill="#fee05b"/>
    <g id="Group_48019" data-name="Group 48019" transform="translate(-0.006 0.072)">
      <path id="Path_26380" data-name="Path 26380" d="M261.021,1508.494V1498.27l-10.787,10.2Z" transform="translate(-230.146 -1472.047)" fill="#fee05b"/>
      <path id="Path_26381" data-name="Path 26381" d="M206.287,1383.16H195.924v21.471l10.363-9.872Z" transform="translate(-188.213 -1383.16)" fill="#fee05b"/>
      <path id="Path_26382" data-name="Path 26382" d="M195.927,1460.989v11.095H206.29V1451.11Z" transform="translate(-188.212 -1435.631)" fill="#fee05b"/>
      <g id="Group_48016" data-name="Group 48016" transform="translate(0 8.109)">
        <path id="Path_26383" data-name="Path 26383" d="M162.238,1443.357l-.138-.138,25.639-24.432.138.138Z" transform="translate(-162.1 -1418.787)" fill="#fee05b"/>
      </g>
      <g id="Group_48017" data-name="Group 48017" transform="translate(15.918 24.843)">
        <path id="Path_26384" data-name="Path 26384" d="M232.088,1507.74l-.138-.138,16.188-15.428.138.138Z" transform="translate(-231.95 -1492.174)" fill="#fee05b"/>
      </g>
      <g id="Group_48018" data-name="Group 48018" transform="translate(0 4.285)">
        <path id="Path_26385" data-name="Path 26385" d="M162.238,1426.537l-.138-.138,25.639-24.433.138.138Z" transform="translate(-162.1 -1401.967)" fill="#fee05b"/>
      </g>
    </g>
  </g>
</svg>
